<svg width="262" height="61" viewBox="0 0 262 61" fill="none" xmlns="http://www.w3.org/2000/svg">
<path d="M77.622 23V2H82.452V19.04H91.812V2H96.642V23H77.622ZM95.172 27.44V21.86L96.222 23H91.812V19.04H99.642V27.44H95.172ZM102.487 23V6.86H107.137V16.46L114.997 6.86H119.287V23H114.637V13.4L106.807 23H102.487ZM134.645 23.36C134.605 23.36 134.495 23.36 134.315 23.36C134.135 23.36 133.965 23.36 133.805 23.36C133.645 23.36 133.535 23.36 133.475 23.36C129.975 23.3 127.265 22.55 125.345 21.11C123.425 19.67 122.465 17.59 122.465 14.87C122.465 12.19 123.415 10.15 125.315 8.75C127.235 7.33 129.985 6.61 133.565 6.59C133.605 6.59 133.705 6.59 133.865 6.59C134.045 6.59 134.215 6.59 134.375 6.59C134.535 6.59 134.635 6.59 134.675 6.59C138.295 6.59 141.095 7.29 143.075 8.69C145.075 10.09 146.075 12.15 146.075 14.87C146.075 17.63 145.075 19.74 143.075 21.2C141.095 22.64 138.285 23.36 134.645 23.36ZM134.495 19.76C136.155 19.76 137.505 19.59 138.545 19.25C139.585 18.89 140.345 18.35 140.825 17.63C141.325 16.89 141.575 15.97 141.575 14.87C141.575 13.81 141.335 12.94 140.855 12.26C140.375 11.56 139.605 11.04 138.545 10.7C137.505 10.36 136.155 10.19 134.495 10.19C134.435 10.19 134.315 10.19 134.135 10.19C133.955 10.19 133.835 10.19 133.775 10.19C132.175 10.19 130.875 10.37 129.875 10.73C128.875 11.09 128.145 11.61 127.685 12.29C127.225 12.97 126.995 13.83 126.995 14.87C126.995 15.95 127.225 16.85 127.685 17.57C128.145 18.29 128.875 18.83 129.875 19.19C130.875 19.55 132.175 19.74 133.775 19.76C133.835 19.76 133.955 19.76 134.135 19.76C134.315 19.76 134.435 19.76 134.495 19.76ZM132.125 28.82V0.739999H136.415V28.82H132.125ZM158.754 23.24C157.394 23.24 156.204 22.94 155.184 22.34C154.164 21.74 153.364 20.83 152.784 19.61C152.224 18.37 151.944 16.81 151.944 14.93C151.944 13.03 152.214 11.47 152.754 10.25C153.294 9.03 154.074 8.12 155.094 7.52C156.114 6.92 157.334 6.62 158.754 6.62C160.274 6.62 161.634 6.97 162.834 7.67C164.054 8.35 165.014 9.31 165.714 10.55C166.434 11.79 166.794 13.25 166.794 14.93C166.794 16.63 166.434 18.1 165.714 19.34C165.014 20.58 164.054 21.54 162.834 22.22C161.634 22.9 160.274 23.24 158.754 23.24ZM149.214 28.82V6.86H153.684V10.16L153.594 14.96L153.894 19.73V28.82H149.214ZM157.944 19.4C158.724 19.4 159.414 19.22 160.014 18.86C160.634 18.5 161.124 17.99 161.484 17.33C161.864 16.65 162.054 15.85 162.054 14.93C162.054 13.99 161.864 13.19 161.484 12.53C161.124 11.87 160.634 11.36 160.014 11C159.414 10.64 158.724 10.46 157.944 10.46C157.164 10.46 156.464 10.64 155.844 11C155.224 11.36 154.734 11.87 154.374 12.53C154.014 13.19 153.834 13.99 153.834 14.93C153.834 15.85 154.014 16.65 154.374 17.33C154.734 17.99 155.224 18.5 155.844 18.86C156.464 19.22 157.164 19.4 157.944 19.4ZM177.634 23.24C175.914 23.24 174.384 22.88 173.044 22.16C171.724 21.44 170.674 20.46 169.894 19.22C169.134 17.96 168.754 16.53 168.754 14.93C168.754 13.31 169.134 11.88 169.894 10.64C170.674 9.38 171.724 8.4 173.044 7.7C174.384 6.98 175.914 6.62 177.634 6.62C179.334 6.62 180.854 6.98 182.194 7.7C183.534 8.4 184.584 9.37 185.344 10.61C186.104 11.85 186.484 13.29 186.484 14.93C186.484 16.53 186.104 17.96 185.344 19.22C184.584 20.46 183.534 21.44 182.194 22.16C180.854 22.88 179.334 23.24 177.634 23.24ZM177.634 19.4C178.414 19.4 179.114 19.22 179.734 18.86C180.354 18.5 180.844 17.99 181.204 17.33C181.564 16.65 181.744 15.85 181.744 14.93C181.744 13.99 181.564 13.19 181.204 12.53C180.844 11.87 180.354 11.36 179.734 11C179.114 10.64 178.414 10.46 177.634 10.46C176.854 10.46 176.154 10.64 175.534 11C174.914 11.36 174.414 11.87 174.034 12.53C173.674 13.19 173.494 13.99 173.494 14.93C173.494 15.85 173.674 16.65 174.034 17.33C174.414 17.99 174.914 18.5 175.534 18.86C176.154 19.22 176.854 19.4 177.634 19.4ZM189.703 23V6.86H202.633V10.7H193.303L194.353 9.68V23H189.703ZM214.624 23.24C213.264 23.24 212.074 22.94 211.054 22.34C210.034 21.74 209.234 20.83 208.654 19.61C208.094 18.37 207.814 16.81 207.814 14.93C207.814 13.03 208.084 11.47 208.624 10.25C209.164 9.03 209.944 8.12 210.964 7.52C211.984 6.92 213.204 6.62 214.624 6.62C216.144 6.62 217.504 6.97 218.704 7.67C219.924 8.35 220.884 9.31 221.584 10.55C222.304 11.79 222.664 13.25 222.664 14.93C222.664 16.63 222.304 18.1 221.584 19.34C220.884 20.58 219.924 21.54 218.704 22.22C217.504 22.9 216.144 23.24 214.624 23.24ZM205.084 28.82V6.86H209.554V10.16L209.464 14.96L209.764 19.73V28.82H205.084ZM213.814 19.4C214.594 19.4 215.284 19.22 215.884 18.86C216.504 18.5 216.994 17.99 217.354 17.33C217.734 16.65 217.924 15.85 217.924 14.93C217.924 13.99 217.734 13.19 217.354 12.53C216.994 11.87 216.504 11.36 215.884 11C215.284 10.64 214.594 10.46 213.814 10.46C213.034 10.46 212.334 10.64 211.714 11C211.094 11.36 210.604 11.87 210.244 12.53C209.884 13.19 209.704 13.99 209.704 14.93C209.704 15.85 209.884 16.65 210.244 17.33C210.604 17.99 211.094 18.5 211.714 18.86C212.334 19.22 213.034 19.4 213.814 19.4ZM235.34 23V19.85L235.04 19.16V13.52C235.04 12.52 234.73 11.74 234.11 11.18C233.51 10.62 232.58 10.34 231.32 10.34C230.46 10.34 229.61 10.48 228.77 10.76C227.95 11.02 227.25 11.38 226.67 11.84L224.99 8.57C225.87 7.95 226.93 7.47 228.17 7.13C229.41 6.79 230.67 6.62 231.95 6.62C234.41 6.62 236.32 7.2 237.68 8.36C239.04 9.52 239.72 11.33 239.72 13.79V23H235.34ZM230.42 23.24C229.16 23.24 228.08 23.03 227.18 22.61C226.28 22.17 225.59 21.58 225.11 20.84C224.63 20.1 224.39 19.27 224.39 18.35C224.39 17.39 224.62 16.55 225.08 15.83C225.56 15.11 226.31 14.55 227.33 14.15C228.35 13.73 229.68 13.52 231.32 13.52H235.61V16.25H231.83C230.73 16.25 229.97 16.43 229.55 16.79C229.15 17.15 228.95 17.6 228.95 18.14C228.95 18.74 229.18 19.22 229.64 19.58C230.12 19.92 230.77 20.09 231.59 20.09C232.37 20.09 233.07 19.91 233.69 19.55C234.31 19.17 234.76 18.62 235.04 17.9L235.76 20.06C235.42 21.1 234.8 21.89 233.9 22.43C233 22.97 231.84 23.24 230.42 23.24ZM254.885 20.9V10.7H249.605L249.515 12.77C249.475 13.63 249.425 14.45 249.365 15.23C249.305 16.01 249.185 16.72 249.005 17.36C248.845 17.98 248.605 18.51 248.285 18.95C247.965 19.37 247.535 19.66 246.995 19.82L242.375 19.16C242.955 19.16 243.425 18.99 243.785 18.65C244.145 18.29 244.425 17.8 244.625 17.18C244.825 16.54 244.975 15.82 245.075 15.02C245.175 14.2 245.245 13.34 245.285 12.44L245.495 6.86H259.565V20.9H254.885ZM241.835 26.48V19.16H261.875V26.48H257.525V23H246.185V26.48H241.835Z" fill="#526574"/>
<path d="M75.252 60L84.612 39H89.412L98.802 60H93.702L86.022 41.46H87.942L80.232 60H75.252ZM79.932 55.5L81.222 51.81H92.022L93.342 55.5H79.932ZM101.227 60V43.86H105.877V50.16H112.897V43.86H117.577V60H112.897V53.97H105.877V60H101.227ZM131.717 60V56.85L131.417 56.16V50.52C131.417 49.52 131.107 48.74 130.487 48.18C129.887 47.62 128.957 47.34 127.697 47.34C126.837 47.34 125.987 47.48 125.147 47.76C124.327 48.02 123.627 48.38 123.047 48.84L121.367 45.57C122.247 44.95 123.307 44.47 124.547 44.13C125.787 43.79 127.047 43.62 128.327 43.62C130.787 43.62 132.697 44.2 134.057 45.36C135.417 46.52 136.097 48.33 136.097 50.79V60H131.717ZM126.797 60.24C125.537 60.24 124.457 60.03 123.557 59.61C122.657 59.17 121.967 58.58 121.487 57.84C121.007 57.1 120.767 56.27 120.767 55.35C120.767 54.39 120.997 53.55 121.457 52.83C121.937 52.11 122.687 51.55 123.707 51.15C124.727 50.73 126.057 50.52 127.697 50.52H131.987V53.25H128.207C127.107 53.25 126.347 53.43 125.927 53.79C125.527 54.15 125.327 54.6 125.327 55.14C125.327 55.74 125.557 56.22 126.017 56.58C126.497 56.92 127.147 57.09 127.967 57.09C128.747 57.09 129.447 56.91 130.067 56.55C130.687 56.17 131.137 55.62 131.417 54.9L132.137 57.06C131.797 58.1 131.177 58.89 130.277 59.43C129.377 59.97 128.217 60.24 126.797 60.24ZM138.122 59.97L138.362 56.13C138.482 56.15 138.602 56.17 138.722 56.19C138.842 56.19 138.952 56.19 139.052 56.19C139.612 56.19 140.052 56.03 140.372 55.71C140.692 55.39 140.932 54.96 141.092 54.42C141.252 53.86 141.362 53.23 141.422 52.53C141.502 51.83 141.562 51.1 141.602 50.34L141.842 43.86H155.642V60H150.962V46.56L152.012 47.7H144.932L145.922 46.5L145.712 50.55C145.652 51.99 145.532 53.31 145.352 54.51C145.192 55.71 144.922 56.75 144.542 57.63C144.162 58.49 143.652 59.16 143.012 59.64C142.372 60.1 141.552 60.33 140.552 60.33C140.192 60.33 139.812 60.3 139.412 60.24C139.012 60.18 138.582 60.09 138.122 59.97ZM160.143 60V43.86H164.793V53.46L172.653 43.86H176.943V60H172.293V50.4L164.463 60H160.143ZM184.892 60V46.62L185.942 47.7H179.432V43.86H195.002V47.7H188.492L189.542 46.62V60H184.892ZM197.496 60V43.86H202.146V53.46L210.006 43.86H214.296V60H209.646V50.4L201.816 60H197.496ZM230.225 60L224.825 52.35L228.635 50.1L235.745 60H230.225ZM218.795 60V43.86H223.475V60H218.795ZM222.095 53.88V50.13H227.735V53.88H222.095ZM229.085 52.47L224.705 51.99L230.375 43.86H235.355L229.085 52.47ZM247.41 60V56.85L247.11 56.16V50.52C247.11 49.52 246.8 48.74 246.18 48.18C245.58 47.62 244.65 47.34 243.39 47.34C242.53 47.34 241.68 47.48 240.84 47.76C240.02 48.02 239.32 48.38 238.74 48.84L237.06 45.57C237.94 44.95 239 44.47 240.24 44.13C241.48 43.79 242.74 43.62 244.02 43.62C246.48 43.62 248.39 44.2 249.75 45.36C251.11 46.52 251.79 48.33 251.79 50.79V60H247.41ZM242.49 60.24C241.23 60.24 240.15 60.03 239.25 59.61C238.35 59.17 237.66 58.58 237.18 57.84C236.7 57.1 236.46 56.27 236.46 55.35C236.46 54.39 236.69 53.55 237.15 52.83C237.63 52.11 238.38 51.55 239.4 51.15C240.42 50.73 241.75 50.52 243.39 50.52H247.68V53.25H243.9C242.8 53.25 242.04 53.43 241.62 53.79C241.22 54.15 241.02 54.6 241.02 55.14C241.02 55.74 241.25 56.22 241.71 56.58C242.19 56.92 242.84 57.09 243.66 57.09C244.44 57.09 245.14 56.91 245.76 56.55C246.38 56.17 246.83 55.62 247.11 54.9L247.83 57.06C247.49 58.1 246.87 58.89 245.97 59.43C245.07 59.97 243.91 60.24 242.49 60.24Z" fill="#B6E4BA"/>
<path d="M46.717 31.2805C46.7025 33.718 45.9868 36.0965 44.6602 38.1159C43.3336 40.1353 41.4556 41.7053 39.263 42.6277C37.0704 43.5502 34.6614 43.7838 32.3399 43.2991C30.0185 42.8144 27.8885 41.6331 26.2186 39.9043C24.5488 38.1754 23.4139 35.9764 22.9571 33.5847C22.5002 31.1929 22.742 28.7155 23.6518 26.4649C24.5616 24.2144 26.0988 22.2915 28.0693 20.9388C30.0399 19.5861 32.3556 18.8642 34.7244 18.8641C37.9142 18.8762 40.9689 20.1906 43.2175 22.5187C45.4662 24.8468 46.7248 27.9981 46.717 31.2805Z" fill="#526574"/>
<path d="M14.8446 58.8692C14.6051 59.1705 14.2621 59.3653 13.8867 59.4133C13.5113 59.4612 13.1324 59.3585 12.8286 59.1266C8.81795 55.739 5.58714 51.4784 3.36885 46.6515C1.15057 41.8247 0 36.5518 0 31.2124C0 25.873 1.15057 20.6001 3.36885 15.7733C5.58714 10.9464 8.81795 6.68582 12.8286 3.29821C13.1324 3.06626 13.5113 2.9636 13.8867 3.01153C14.2621 3.05946 14.6051 3.25431 14.8446 3.55562L20.142 10.9146C20.3412 11.2153 20.4285 11.5797 20.3879 11.9412C20.3474 12.3026 20.1817 12.637 19.9212 12.8831C17.3288 15.1345 15.2452 17.9412 13.8159 21.107C12.3866 24.2729 11.6461 27.7216 11.6461 31.2124C11.6461 34.7032 12.3866 38.1519 13.8159 41.3178C15.2452 44.4836 17.3288 47.2903 19.9212 49.5417C20.1817 49.7878 20.3474 50.1222 20.3879 50.4837C20.4285 50.8451 20.3412 51.2095 20.142 51.5102L14.8446 58.8692Z" fill="#526574"/>
<path d="M54.6042 58.8692L49.3068 51.5102C49.1058 51.2113 49.0161 50.8479 49.0539 50.4865C49.0917 50.1251 49.2546 49.7898 49.5128 49.5417C52.1053 47.2903 54.1889 44.4836 55.6182 41.3178C57.0474 38.1519 57.7879 34.7032 57.7879 31.2124C57.7879 27.7216 57.0474 24.2729 55.6182 21.107C54.1889 17.9412 52.1053 15.1345 49.5128 12.8831C49.2389 12.6492 49.0631 12.3157 49.022 11.9519C48.9808 11.5881 49.0776 11.222 49.2921 10.9298L54.5895 3.55562C54.8289 3.25431 55.172 3.05946 55.5473 3.01153C55.9227 2.9636 56.3016 3.06626 56.6054 3.29821C60.6158 6.68436 63.8465 10.9436 66.0648 15.7692C68.283 20.5948 69.4336 25.8666 69.4336 31.2048C69.4336 36.5431 68.283 41.8149 66.0648 46.6404C63.8465 51.466 60.6158 55.7253 56.6054 59.1115C56.3034 59.3451 55.9256 59.4503 55.5504 59.4052C55.1751 59.3601 54.831 59.1682 54.5895 58.8692" fill="#526574"/>
</svg>
