<svg id="Слой_1" data-name="Слой 1" xmlns="http://www.w3.org/2000/svg" viewBox="0 0 348.93 47.55"><defs><style>.cls-1{fill:#ef7d00;}</style></defs><path class="cls-1" d="M31.74,21a8.15,8.15,0,1,1-8.15-8.2A8.18,8.18,0,0,1,31.74,21"/><path class="cls-1" d="M37.1,39.22l-3.6-4.86a1,1,0,0,1,.14-1.3,15.84,15.84,0,0,0,0-24.21.94.94,0,0,1-.15-1.29l3.6-4.87a1,1,0,0,1,1.37-.17,23.84,23.84,0,0,1,0,36.86,1,1,0,0,1-1.37-.16"/><path class="cls-1" d="M10.08,39.22a1,1,0,0,1-1.37.17,23.85,23.85,0,0,1,0-36.87,1,1,0,0,1,1.37.17l3.6,4.86a1,1,0,0,1-.15,1.3,15.84,15.84,0,0,0,0,24.21,1,1,0,0,1,.15,1.3Z"/><path class="cls-1" d="M89.43,37.76H74.91c-8.68,0-10.47-4.42-10.47-10.1V1.46a1,1,0,0,1,1-1H72a1,1,0,0,1,1,1v26.2c0,1.51,0,2.57,2.19,2.57h7.93c2.2,0,2.2-1.06,2.2-2.57V1.46a1,1,0,0,1,1-1h6.53a1,1,0,0,1,1,1v26.2a20.62,20.62,0,0,1-.2,2.57H97a1,1,0,0,1,1,1V42.88a1,1,0,0,1-1,1H90.43a1,1,0,0,1-1-1Z"/><path class="cls-1" d="M126.24,37.76h-5.59a1,1,0,0,1-1-1v-1.2a12.5,12.5,0,0,1-8.13,2.61c-7.23,0-8.83-5.07-8.83-11.4V10a1.09,1.09,0,0,1,1-1h6a1,1,0,0,1,1,1V26.76c0,3.51.65,4.67,3.69,4.67a10.55,10.55,0,0,0,4.69-1.61V10a1,1,0,0,1,1-1h6a1.09,1.09,0,0,1,1,1V36.75a1,1,0,0,1-1,1"/><path class="cls-1" d="M149.43,1a1,1,0,0,1,1-1h6a1,1,0,0,1,1,1V8.79c1.35-.1,2.69-.2,4.09-.2,8.08,0,12.52,4.72,12.52,12.85v3.91c0,7.89-4.09,12.86-12.52,12.86a34.69,34.69,0,0,1-4.09-.35v8.68a1,1,0,0,1-1,1h-6a1.06,1.06,0,0,1-1-1V37.86a34.86,34.86,0,0,1-4.09.35c-8.43,0-12.52-5-12.52-12.86V21.44c0-8.13,4.44-12.85,12.52-12.85a35.11,35.11,0,0,1,4.09.2Zm0,14.56a28.76,28.76,0,0,0-4.09-.25c-3.55,0-4.44,2.56-4.44,6.13v3.91c0,3.52.89,6.18,4.44,6.18a37.69,37.69,0,0,0,4.09-.3ZM166,21.44c0-3.57-.9-6.13-4.44-6.13a28.66,28.66,0,0,0-4.09.25V31.23a37.5,37.5,0,0,0,4.09.3c3.54,0,4.44-2.66,4.44-6.18Z"/><path class="cls-1" d="M191.87,38.21a34.69,34.69,0,0,1-4.09-.35v8.68a1,1,0,0,1-1,1h-6a1.06,1.06,0,0,1-1.05-1V11.35c0-.81.2-1.16,1.54-1.46a46.88,46.88,0,0,1,10.63-1.3c8.08,0,12.52,4.72,12.52,12.85v3.91c0,7.89-4.09,12.86-12.52,12.86m4.44-16.77c0-3.57-.9-6.13-4.44-6.13a28.66,28.66,0,0,0-4.09.25V31.23a37.5,37.5,0,0,0,4.09.3c3.54,0,4.44-2.66,4.44-6.18Z"/><path class="cls-1" d="M221.69,38.21c-8.08,0-12.52-5.07-12.52-13.06V21.64c0-8,4.44-13,12.52-13s12.48,5.07,12.48,13.05v3.51c0,8-4.39,13.06-12.48,13.06m4.45-16.57c0-4.07-1.55-6.12-4.45-6.12s-4.48,2.05-4.48,6.12v3.51c0,4.07,1.59,6.18,4.48,6.18s4.45-2.11,4.45-6.18Z"/><path class="cls-1" d="M250.13,15.76c-2.2,0-2.2,1.06-2.2,2.57V36.75a1,1,0,0,1-1,1h-6.08a1,1,0,0,1-1-1V18.33c0-5,1.79-9.34,10.23-9.34h6a1,1,0,0,1,1.05,1v4.72a.93.93,0,0,1-1.05,1Z"/><path class="cls-1" d="M273.56,38.21a34.54,34.54,0,0,1-4.08-.35v8.68a1,1,0,0,1-1,1h-6a1.06,1.06,0,0,1-1.05-1V11.35c0-.81.2-1.16,1.55-1.46a46.71,46.71,0,0,1,10.62-1.3c8.09,0,12.53,4.72,12.53,12.85v3.91c0,7.89-4.09,12.86-12.53,12.86M278,21.44c0-3.57-.89-6.13-4.44-6.13a28.61,28.61,0,0,0-4.08.25V31.23a37.32,37.32,0,0,0,4.08.3c3.55,0,4.44-2.66,4.44-6.18Z"/><path class="cls-1" d="M312.72,37.76h-5.59a1,1,0,0,1-1-1V36a11,11,0,0,1-6.93,2.26c-4.34,0-8.53-2.11-8.53-8.64v-.45c0-5.87,3.74-8.48,12.27-8.48h2.69V18.83c0-2.86-1.39-3.47-3.74-3.47-3.19,0-6.73.21-8.28.36h-.25a.82.82,0,0,1-.89-.91V10.74a1.11,1.11,0,0,1,.94-1.1A40.14,40.14,0,0,1,302,8.59c7.18,0,11.67,2.91,11.67,10.24V36.75a1,1,0,0,1-1,1m-6.94-12.31h-2.84c-3.49,0-4.39,1.21-4.39,3.67v.45c0,2.11,1.05,2.51,3.14,2.51a9.21,9.21,0,0,0,4.09-1.1Z"/><path class="cls-1" d="M341.19,37.76H325.93v5.07a1,1,0,0,1-1,1H319.2a1,1,0,0,1-1-1V31.93a1,1,0,0,1,1-1h2.54l4.59-17.88c.95-3.81,4.34-4.62,7.23-4.62s6.14.66,7.19,4.62l4.63,17.88h2.55a1,1,0,0,1,1,1v10.9a1,1,0,0,1-1,1h-5.74a1,1,0,0,1-1-1Zm-11.32-6.83h7.34l-3.5-15.16c0-.2-.1-.31-.2-.31s-.15.11-.2.31Z"/></svg>