<svg id="Слой_1" data-name="Слой 1" xmlns="http://www.w3.org/2000/svg" viewBox="0 0 48.93 47.55"><defs><style>.cls-1{fill:#ef7d00;}</style></defs><path class="cls-1" d="M31.74,21a8.15,8.15,0,1,1-8.15-8.2A8.18,8.18,0,0,1,31.74,21"/><path class="cls-1" d="M37.1,39.22l-3.6-4.86a1,1,0,0,1,.14-1.3,15.84,15.84,0,0,0,0-24.21.94.94,0,0,1-.15-1.29l3.6-4.87a1,1,0,0,1,1.37-.17,23.84,23.84,0,0,1,0,36.86,1,1,0,0,1-1.37-.16"/><path class="cls-1" d="M10.08,39.22a1,1,0,0,1-1.37.17,23.85,23.85,0,0,1,0-36.87,1,1,0,0,1,1.37.17l3.6,4.86a1,1,0,0,1-.15,1.3,15.84,15.84,0,0,0,0,24.21,1,1,0,0,1,.15,1.3Z"/></svg>
